<svg width="1013" height="185" viewBox="0 0 1013 185" fill="none" xmlns="http://www.w3.org/2000/svg">
<rect width="1013" height="185" rx="91" fill="#54BBBD"/>
<path d="M315.864 145.53C310.684 145.53 306.169 144.62 302.319 142.8C298.469 141.05 295.494 138.53 293.394 135.24C291.364 131.95 290.349 128.065 290.349 123.585C290.349 121.835 290.559 119.63 290.979 116.97C291.399 114.31 291.854 112.28 292.344 110.88L301.794 107.31L302.949 107.73C302.459 110.18 302.214 113.47 302.214 117.6C302.214 122.57 303.544 126.28 306.204 128.73C308.934 131.18 313.029 132.405 318.489 132.405C322.479 132.405 326.084 131.74 329.304 130.41C332.524 129.15 334.939 127.4 336.549 125.16C336.759 124.18 336.864 123.2 336.864 122.22C336.864 119.91 336.339 117.25 335.289 114.24C334.309 111.16 332.734 107.24 330.564 102.48L342.009 94.395H342.639C344.249 98.035 345.579 102.025 346.629 106.365C347.749 110.635 348.309 114.205 348.309 117.075C348.309 122.745 346.979 127.715 344.319 131.985C341.659 136.325 337.879 139.65 332.979 141.96C328.079 144.34 322.374 145.53 315.864 145.53ZM318.909 92.715L307.674 84.735L314.709 74.445L325.839 82.215L318.909 92.715ZM400.452 74.025C400.452 82.075 398.387 89.565 394.257 96.495C398.037 101.675 399.927 106.435 399.927 110.775C399.927 115.745 398.247 119.525 394.887 122.115C391.527 124.705 385.997 126 378.297 126H363.597L364.332 113.085C368.252 110.985 371.717 108.78 374.727 106.47C377.737 104.09 380.257 101.395 382.287 98.385C379.067 95.445 375.392 92.47 371.262 89.46C367.202 86.45 363.457 83.86 360.027 81.69L363.912 68.775L364.647 68.46C374.027 75.74 381.482 82.215 387.012 87.885C387.782 84.665 388.167 81.34 388.167 77.91C388.167 75.04 387.887 71.75 387.327 68.04C386.837 64.26 386.277 61.25 385.647 59.01L397.407 53.235L398.247 53.445C398.807 56.315 399.297 59.78 399.717 63.84C400.207 67.83 400.452 71.225 400.452 74.025ZM391.422 110.775C391.422 109.095 390.337 106.995 388.167 104.475C385.227 107.625 381.902 110.425 378.192 112.875H380.502C383.582 112.875 385.962 112.735 387.642 112.455C389.322 112.105 390.582 111.545 391.422 110.775ZM373.572 64.05C372.592 64.05 371.577 63.945 370.527 63.735C369.547 63.455 368.742 63.245 368.112 63.105C367.552 62.895 367.167 62.755 366.957 62.685C365.767 62.265 364.682 61.95 363.702 61.74C362.722 61.46 361.742 61.32 360.762 61.32C358.242 61.32 355.582 62.195 352.782 63.945L349.002 58.065C350.822 56.315 352.572 55.055 354.252 54.285C356.002 53.515 357.752 53.13 359.502 53.13C360.552 53.13 361.672 53.27 362.862 53.55C364.122 53.76 365.312 54.04 366.432 54.39C367.902 54.81 369.197 55.16 370.317 55.44C371.507 55.65 372.662 55.755 373.782 55.755C375.532 55.755 377.142 55.475 378.612 54.915L381.027 61.95C378.437 63.35 375.952 64.05 373.572 64.05ZM414.602 126.735L413.762 126.105V56.49L425.942 53.235L426.992 53.865L426.677 124.215L414.602 126.735ZM464.231 126.735L463.391 126.105V56.49L475.571 53.235L476.621 53.865L476.306 124.215L464.231 126.735ZM480.611 46.725C475.151 47.425 468.326 47.915 460.136 48.195L459.401 40.635C461.501 40.635 463.111 40.6 464.231 40.53C463.531 39.55 462.971 38.5 462.551 37.38C462.131 36.19 461.921 35.035 461.921 33.915C461.921 31.185 462.726 29.015 464.336 27.405C466.016 25.725 468.326 24.885 471.266 24.885C473.506 24.885 476.096 25.445 479.036 26.565L477.251 33.39C475.571 32.83 474.066 32.55 472.736 32.55C471.616 32.55 470.741 32.865 470.111 33.495C469.481 34.055 469.166 34.86 469.166 35.91C469.166 37.52 469.866 38.955 471.266 40.215C475.326 39.935 478.266 39.69 480.086 39.48L480.611 46.725ZM536.581 112.875C538.121 112.875 539.206 113.26 539.836 114.03C540.536 114.8 540.886 115.815 540.886 117.075C540.886 119.805 540.326 121.975 539.206 123.585C538.086 125.195 536.266 126 533.746 126C530.246 126 527.376 125.65 525.136 124.95C522.966 124.18 521.181 122.885 519.781 121.065C517.261 122.955 514.111 124.425 510.331 125.475C506.621 126.455 502.526 126.945 498.046 126.945C496.366 126.945 494.336 126.84 491.956 126.63C489.576 126.42 487.546 126.14 485.866 125.79L487.756 113.085L488.491 112.665C490.031 112.945 491.816 113.155 493.846 113.295C495.946 113.435 497.731 113.505 499.201 113.505C501.931 113.505 504.661 113.33 507.391 112.98C510.121 112.56 512.431 111.965 514.321 111.195L502.036 87.57L511.486 76.86H512.641C514.391 81.13 516.351 85.785 518.521 90.825C520.691 95.865 522.441 99.925 523.771 103.005C525.031 105.945 526.186 108.115 527.236 109.515C528.286 110.845 529.476 111.755 530.806 112.245C532.206 112.665 534.131 112.875 536.581 112.875ZM536.726 112.875H545.126C546.596 112.875 547.646 113.26 548.276 114.03C548.976 114.8 549.326 115.815 549.326 117.075C549.326 119.805 548.766 121.975 547.646 123.585C546.596 125.195 544.811 126 542.291 126H533.891L536.726 112.875ZM545.134 112.875H553.534C555.004 112.875 556.054 113.26 556.684 114.03C557.384 114.8 557.734 115.815 557.734 117.075C557.734 119.805 557.174 121.975 556.054 123.585C555.004 125.195 553.219 126 550.699 126H542.299L545.134 112.875ZM553.542 112.875H561.942C563.412 112.875 564.462 113.26 565.092 114.03C565.792 114.8 566.142 115.815 566.142 117.075C566.142 119.805 565.582 121.975 564.462 123.585C563.412 125.195 561.627 126 559.107 126H550.707L553.542 112.875ZM561.95 112.875H570.35C571.82 112.875 572.87 113.26 573.5 114.03C574.2 114.8 574.55 115.815 574.55 117.075C574.55 119.805 573.99 121.975 572.87 123.585C571.82 125.195 570.035 126 567.515 126H559.115L561.95 112.875ZM570.358 112.875H578.758C580.228 112.875 581.278 113.26 581.908 114.03C582.608 114.8 582.958 115.815 582.958 117.075C582.958 119.805 582.398 121.975 581.278 123.585C580.228 125.195 578.443 126 575.923 126H567.523L570.358 112.875ZM578.767 112.875H587.167C588.637 112.875 589.687 113.26 590.317 114.03C591.017 114.8 591.367 115.815 591.367 117.075C591.367 119.805 590.807 121.975 589.687 123.585C588.637 125.195 586.852 126 584.332 126H575.932L578.767 112.875ZM587.175 112.875H595.575C597.045 112.875 598.095 113.26 598.725 114.03C599.425 114.8 599.775 115.815 599.775 117.075C599.775 119.805 599.215 121.975 598.095 123.585C597.045 125.195 595.26 126 592.74 126H584.34L587.175 112.875ZM595.583 112.875H603.983C605.453 112.875 606.503 113.26 607.133 114.03C607.833 114.8 608.183 115.815 608.183 117.075C608.183 119.805 607.623 121.975 606.503 123.585C605.453 125.195 603.668 126 601.148 126H592.748L595.583 112.875ZM603.991 112.875H612.391C613.861 112.875 614.911 113.26 615.541 114.03C616.241 114.8 616.591 115.815 616.591 117.075C616.591 119.805 616.031 121.975 614.911 123.585C613.861 125.195 612.076 126 609.556 126H601.156L603.991 112.875ZM612.399 112.875H620.799C622.269 112.875 623.319 113.26 623.949 114.03C624.649 114.8 624.999 115.815 624.999 117.075C624.999 119.805 624.439 121.975 623.319 123.585C622.269 125.195 620.484 126 617.964 126H609.564L612.399 112.875ZM620.808 112.875H629.208C630.678 112.875 631.728 113.26 632.358 114.03C633.058 114.8 633.408 115.815 633.408 117.075C633.408 119.805 632.848 121.975 631.728 123.585C630.678 125.195 628.893 126 626.373 126H617.973L620.808 112.875ZM629.216 112.875H637.616C639.086 112.875 640.136 113.26 640.766 114.03C641.466 114.8 641.816 115.815 641.816 117.075C641.816 119.805 641.256 121.975 640.136 123.585C639.086 125.195 637.301 126 634.781 126H626.381L629.216 112.875ZM637.624 112.875H646.024C647.494 112.875 648.544 113.26 649.174 114.03C649.874 114.8 650.224 115.815 650.224 117.075C650.224 119.805 649.664 121.975 648.544 123.585C647.494 125.195 645.709 126 643.189 126H634.789L637.624 112.875ZM646.032 112.875H654.432C655.902 112.875 656.952 113.26 657.582 114.03C658.282 114.8 658.632 115.815 658.632 117.075C658.632 119.805 658.072 121.975 656.952 123.585C655.902 125.195 654.117 126 651.597 126H643.197L646.032 112.875ZM654.44 112.875H662.84C664.31 112.875 665.36 113.26 665.99 114.03C666.69 114.8 667.04 115.815 667.04 117.075C667.04 119.805 666.48 121.975 665.36 123.585C664.31 125.195 662.525 126 660.005 126H651.605L654.44 112.875ZM662.849 112.875H671.249C672.719 112.875 673.769 113.26 674.399 114.03C675.099 114.8 675.449 115.815 675.449 117.075C675.449 119.805 674.889 121.975 673.769 123.585C672.719 125.195 670.934 126 668.414 126H660.014L662.849 112.875ZM671.257 112.875H672.307C674.477 112.875 676.507 112.805 678.397 112.665C680.357 112.525 681.687 112.315 682.387 112.035C682.457 111.825 682.492 111.44 682.492 110.88C682.492 108.99 681.932 106.68 680.812 103.95C679.762 101.22 678.292 97.93 676.402 94.08L687.007 85.68H688.057C689.807 89.32 691.207 93.205 692.257 97.335C693.377 101.395 693.937 104.685 693.937 107.205C693.937 109.935 693.447 112.49 692.467 114.87C691.557 117.25 690.192 119.385 688.372 121.275C686.622 122.955 684.347 124.18 681.547 124.95C678.817 125.65 674.862 126 669.682 126H668.422L671.257 112.875ZM685.957 151.83L674.722 143.955L681.757 133.665L692.887 141.33L685.957 151.83ZM706.736 126.735L705.896 126.105V56.49L718.076 53.235L719.126 53.865L718.811 124.215L706.736 126.735Z" fill="white"/>
</svg>
